<?xml version="1.0" encoding="UTF-8" standalone="no"?>
<svg
   xmlns:dc="http://purl.org/dc/elements/1.1/"
   xmlns:cc="http://creativecommons.org/ns#"
   xmlns:rdf="http://www.w3.org/1999/02/22-rdf-syntax-ns#"
   xmlns:svg="http://www.w3.org/2000/svg"
   xmlns="http://www.w3.org/2000/svg"
   viewBox="0 0 656.21332 110.12"
   height="110.12"
   width="656.21332"
   xml:space="preserve"
   id="svg2"
   version="1.1"><metadata
     id="metadata8"><rdf:RDF><cc:Work
         rdf:about=""><dc:format>image/svg+xml</dc:format><dc:type
           rdf:resource="http://purl.org/dc/dcmitype/StillImage" /></cc:Work></rdf:RDF></metadata><defs
     id="defs6" /><g
     transform="matrix(1.3333333,0,0,-1.3333333,0,110.12)"
     id="g10"><g
       transform="scale(0.1)"
       id="g12"><path
         id="path14"
         style="fill:#b51d24;fill-opacity:1;fill-rule:nonzero;stroke:none"
         d="M 413.426,825.934 C 185.098,825.934 0,640.844 0,412.531 0,197.559 164.082,20.9961 373.816,1.01563 l -2.214,39.99997 -1.52,27.8321 -1.441,25.4882 -12.938,10.0001 -14.617,-0.555 c -0.106,0 -0.227,0 -0.363,0 -3.77,0 -6.934,2.449 -7.11,5.594 l -0.754,12.57 -16.504,24.668 -16.972,12.625 c -1.414,1.043 -2.25,2.5 -2.313,4.043 l -0.84,13.946 -0.703,13.894 -0.836,13.91 -0.722,13.895 -0.707,12.519 -17.711,25.489 c -0.531,0.808 -0.879,1.699 -0.922,2.656 l -0.777,13.879 -1.567,27.898 -1.543,27.832 -0.781,13.914 -1.535,27.282 c -0.098,1.574 0.582,3.074 1.851,4.21 l 14.332,12.793 -2.187,39.336 -2.281,41.227 12.488,85.121 -3.109,54.168 c -0.028,0.617 0.031,1.219 0.25,1.789 l 11.011,33.086 -0.984,76.746 c -0.039,3.203 3.058,5.84 6.965,5.906 0.062,0 0.164,0 0.218,0 3.809,0 6.973,-2.476 7.129,-5.582 l 0.754,-13.898 0.782,-13.918 1.531,-27.281 0.812,-13.946 c 0.02,-0.617 -0.066,-1.222 -0.273,-1.777 l -2.559,-7.793 3.977,-306.059 25.933,-9.375 12.102,11.258 c 1.293,1.223 3.133,1.934 5.078,2.024 l 17.113,0.652 14.118,0.469 12.285,10.984 -2.16,38.817 -3.051,55.671 11.656,98.372 -3.102,54.316 -2.269,41.746 -3.027,55.227 -1.563,27.781 c -0.078,1.562 0.555,3.078 1.844,4.219 l 16.308,14.562 c 1.368,1.238 3.321,1.875 5.329,1.875 0.816,0 1.64,-0.098 2.406,-0.344 2.75,-0.793 4.609,-2.863 4.722,-5.187 l 3.083,-55.719 0.781,-13.41 1.574,-27.832 2.277,-41.797 -14.16,-57.176 2.442,-40.351 2.308,-41.731 0.766,-13.359 1.535,-27.86 1.508,-27.863 1.562,-27.844 1.305,-23.703 28.766,-10.672 12.304,0.497 14.301,12.746 c 1.285,1.14 3.063,1.824 4.969,1.882 l 17.101,0.657 10.176,0.359 -4.351,382.641 c -0.028,3.222 3.078,5.847 6.953,5.91 0.078,0 0.199,0 0.246,0 3.816,0 6.961,-2.461 7.137,-5.551 l 3,-55.156 3.109,-55.75 3.808,-69.024 3.106,-55.683 3.125,-55.145 3.844,-69.633 3.011,-55.148 -14.082,-57.695 -16.093,-29.317 c -1.11,-1.992 -3.571,-3.34 -6.25,-3.418 l -12.598,-0.39 -13.691,-25.196 c -0.329,-0.546 -0.727,-1.093 -1.262,-1.574 l -14.344,-12.742 0.672,-11.512 c 0.066,-0.871 -0.129,-1.769 -0.574,-2.621 l -14.906,-27.918 -14.899,-27.226 0.672,-12.5199 0.812,-13.9258 1.528,-27.832 c 0.035,-0.6524 -0.02,-1.2774 -0.223,-1.8945 L 438.672,15.0781 439.398,2.24609 439.516,0 c 216.16,13.4766 387.328,192.969 387.328,412.531 0,228.313 -185.102,413.403 -413.418,413.403" /><path
         id="path16"
         style="fill:#100f0d;fill-opacity:1;fill-rule:nonzero;stroke:none"
         d="m 1470.3,568.391 c -65.64,38.379 -121.94,55.613 -183.69,55.613 -121.92,0 -212.6,-86.953 -212.6,-204.441 0,-119.817 87.55,-202.844 215.73,-202.844 60.18,0 125.83,21.144 186.03,60.304 v -83.761 c -52.36,-27.371 -109.42,-46.903 -193.07,-46.903 -200.09,0 -287.739,154.149 -287.739,266.172 0,162.918 122.799,281.832 292.429,281.832 54.72,0 110.21,-13.289 182.91,-43.777 v -82.195" /><path
         id="path18"
         style="fill:#100f0d;fill-opacity:1;fill-rule:nonzero;stroke:none"
         d="m 1637.81,459.063 h 1.58 c 26.57,33.535 65.66,53.015 104.74,53.015 68.75,0 119.48,-46.773 119.48,-143.015 V 153.848 h -69.45 v 217.558 c 0,51.66 -26.59,85.313 -68.8,85.313 -30.47,0 -54.72,-14.082 -87.55,-50.86 V 153.848 h -69.46 v 533.027 h 69.46 V 459.063" /><path
         id="path20"
         style="fill:#100f0d;fill-opacity:1;fill-rule:nonzero;stroke:none"
         d="m 2250.38,255.02 c -40.43,-26.778 -80.15,-42.547 -122.31,-42.547 -67.14,0 -106.96,36.257 -117.89,106.394 h 246.43 c 0,130.363 -59.06,193.211 -151.95,193.211 -96.86,0 -163.97,-71.57 -163.97,-178.543 0,-97.402 60.89,-187.305 170.22,-187.305 59.32,0 97.51,13.262 139.47,41.29 z m -238.64,109.433 c 9.37,56.25 41.37,87.93 94.48,87.93 49.19,0 79.64,-34.063 81.98,-87.93 h -176.46" /><path
         id="path22"
         style="fill:#100f0d;fill-opacity:1;fill-rule:nonzero;stroke:none"
         d="m 2535.72,619.746 c -11.74,4.746 -18.77,6.34 -31.27,6.34 -56.29,0 -74.28,-33.203 -74.28,-87.727 v -33.984 h 63.32 v -62.742 h -63.32 V 153.848 h -69.49 v 287.785 h -49.23 v 62.742 h 49.23 v 26.074 c 0,69.551 16.41,102.625 44.52,130.606 29.65,29.531 69.57,43.574 130.52,25.82 v -67.129" /><path
         id="path24"
         style="fill:#b51e25;fill-opacity:1;fill-rule:nonzero;stroke:none"
         d="m 3238.51,148.406 h -14.88 L 3048.5,584.934 2871.76,148.406 h -14.85 l -215.82,538.469 h 76.64 l 147.02,-367.832 147.75,367.832 h 72.73 l 148.56,-367.832 145.47,367.832 h 75.85 l -216.6,-538.469" /><path
         id="path26"
         style="fill:#b51e25;fill-opacity:1;fill-rule:nonzero;stroke:none"
         d="m 3595.66,511.984 c -104.57,0 -185.35,-78.41 -185.35,-179.296 0,-107.911 77.66,-186.329 185.35,-186.329 112.35,0 190.04,75.262 190.04,186.329 0,104.031 -80.04,179.296 -190.04,179.296 z m -0.76,-62.754 c 69.42,0 119.36,-49.289 119.36,-117.324 0,-75.851 -46.04,-122.804 -119.36,-122.804 -67.11,0 -113.16,49.296 -113.16,123.586 0,67.253 47.56,116.542 113.16,116.542" /><path
         id="path28"
         style="fill:#b51e25;fill-opacity:1;fill-rule:nonzero;stroke:none"
         d="m 3933.92,504.492 v -79.941 h 1.53 c 35.21,61.816 68.81,87.527 101.64,87.527 28.12,0 54.71,-13.23 83.61,-40.484 l -36.72,-60.449 c -21.09,20.515 -48.47,34.734 -64.86,34.734 -47.67,0 -85.2,-48.047 -85.2,-108.262 V 153.848 h -69.49 v 350.644 h 69.49" /><path
         id="path30"
         style="fill:#b51e25;fill-opacity:1;fill-rule:nonzero;stroke:none"
         d="m 4259.73,153.848 h -69.47 v 533.027 h 69.47 z m 91.44,178.808 181.35,-178.808 h -93.79 l -175.86,178.808 155.55,171.836 h 82.83 L 4351.17,332.656" /><path
         id="path32"
         style="fill:#b51e25;fill-opacity:1;fill-rule:nonzero;stroke:none"
         d="m 4791.27,413.293 c -39.29,26.68 -76.2,38.008 -102.15,38.008 -28.32,0 -46.37,-13.742 -46.37,-33.156 0,-15.79 23.56,-34.54 85.7,-70.489 58.1,-38.261 79.26,-62.48 79.26,-98.418 0,-61.668 -49.43,-103.008 -116.23,-103.008 -43.26,0 -77,8.594 -122.55,31.993 v 74.922 c 45.55,-31.25 87.15,-46.094 115.44,-46.094 28.33,1.562 51.92,14.844 51.92,39.844 0,48.437 -165.02,74.218 -165.02,168.828 0,60.507 45.56,96.355 116.26,96.355 33.04,0 66.84,-9.344 103.74,-28.836 v -69.949" /><path
         id="path34"
         style="fill:#b51e25;fill-opacity:1;fill-rule:nonzero;stroke:none"
         d="m 4859.94,498.398 v 18.118 h 12.03 c 6.18,0 12.73,-1.348 12.73,-8.594 0,-8.996 -6.69,-9.524 -14.19,-9.524 z m 0,-7.48 h 10.18 l 15.39,-25.223 h 9.88 l -16.58,25.625 c 8.57,1.063 15.12,5.594 15.12,16.063 0,11.535 -6.82,16.621 -20.59,16.621 h -22.24 v -58.309 h 8.84 z m 10.72,-46.523 c 27.54,0 50.98,21.3 50.98,50.527 0,29.082 -23.44,50.32 -50.98,50.32 -27.91,0 -51.44,-21.238 -51.44,-50.32 0,-29.227 23.53,-50.527 51.44,-50.527 z m -41.36,50.527 c 0,23.996 18.16,41.973 41.36,41.973 22.87,0 40.86,-17.977 40.86,-41.973 0,-24.297 -17.99,-42.156 -40.86,-42.156 -23.2,0 -41.36,17.859 -41.36,42.156" /></g></g></svg>